<svg width="33" height="32" viewBox="0 0 33 32" fill="none" xmlns="http://www.w3.org/2000/svg">
<path fill-rule="evenodd" clip-rule="evenodd" d="M16.5482 31.8709C25.3135 31.8709 32.4192 24.7653 32.4192 16C32.4192 7.23468 25.3135 0.128998 16.5482 0.128998C7.78291 0.128998 0.677246 7.23468 0.677246 16C0.677246 24.7653 7.78291 31.8709 16.5482 31.8709ZM21.4994 7.52237C21.7404 6.66629 20.9097 6.16007 20.151 6.70061L9.55953 14.2459C8.7367 14.8321 8.86613 16 9.75395 16H12.543V15.9784H17.9786L13.5496 17.5411L11.5971 24.4776C11.356 25.3337 12.1867 25.8399 12.9455 25.2993L23.5369 17.7541C24.3598 17.1679 24.2303 16 23.3425 16H19.1131L21.4994 7.52237Z" fill="#A8FF35"/>
</svg>
